<svg width="80px" height="60px" viewBox="0 0 80 60" version="1.1" xmlns="http://www.w3.org/2000/svg" xmlns:xlink="http://www.w3.org/1999/xlink">
			                    <title>Get Going</title>
			                    <g id="Design" stroke="none" stroke-width="1" fill="none" fill-rule="evenodd" stroke-linecap="round" stroke-linejoin="round">
			                        <g id="Design-4.0" transform="translate(-413.000000, -994.000000)" stroke="#3374FF" stroke-width="2">
			                            <g id="Get-Going" transform="translate(414.000000, 995.000000)">
			                                <path d="M39,5.998 L39,11.998" id="Stroke-59"/>
			                                <path d="M6,38.998 L12,38.998" id="Stroke-61"/>
			                                <path d="M72,38.998 L66,38.998" id="Stroke-63"/>
			                                <path d="M55.4941,10.4248 L52.4951,15.6218" id="Stroke-65"/>
			                                <path d="M67.5771,22.5048 L62.3811,25.5058" id="Stroke-67"/>
			                                <path d="M67.5791,55.5068 L62.3831,52.5068" id="Stroke-69"/>
			                                <path d="M22.5078,10.4248 L25.5068,15.6218" id="Stroke-71"/>
			                                <path d="M10.4248,22.5048 L15.6198,25.5058" id="Stroke-73"/>
			                                <path d="M10.4219,55.5068 L15.6179,52.5068" id="Stroke-75"/>
			                                <path d="M73.0938,58.0078 C76.2178,52.4068 77.9998,45.9108 77.9998,39.0348 C77.9998,17.4958 60.5388,0.0218 38.9998,0.0218 C17.4608,0.0218 -0.0002,17.5028 -0.0002,39.0418 C-0.0002,45.9178 1.7808,52.4068 4.9058,58.0078" id="Stroke-77"/>
			                                <path d="M67.5771,22.5048 C70.3331,27.3258 72.0001,32.8568 72.0001,38.8078 C72.0001,44.8808 70.4411,50.6178 67.5791,55.5068" id="Stroke-79"/>
			                                <path d="M41.5957,40.5126 L54.9947,48.2916" id="Stroke-81"/>
			                                <path d="M32.8867,35.457 L36.4077,37.501" id="Stroke-83"/>
			                                <path d="M39.7715,41.9062 C38.1695,42.3322 36.5275,41.3782 36.1025,39.7762 C35.6775,38.1752 36.6305,36.5322 38.2325,36.1072 C39.8335,35.6822 41.4765,36.6352 41.9025,38.2372 C42.3275,39.8392 41.3735,41.4812 39.7715,41.9062 Z" id="Stroke-85"/>
			                            </g>
			                        </g>
			                    </g>
			                </svg>