<svg width="72px" height="72px" viewBox="0 0 72 72" version="1.1" xmlns="http://www.w3.org/2000/svg" xmlns:xlink="http://www.w3.org/1999/xlink">
			                    <title>Get Online</title>
			                    <g id="Design" stroke="none" stroke-width="1" fill="none" fill-rule="evenodd">
			                        <g id="Design-4.0" transform="translate(-674.000000, -989.000000)">
			                            <g id="Get-Online" transform="translate(675.000000, 989.000000)">
			                                <path d="M70,66.998 C70,69.198 68.2,70.998 66,70.998 L4,70.998 C1.8,70.998 0,69.198 0,66.998 L0,4.998 C0,2.798 1.8,0.998 4,0.998 L66,0.998 C68.2,0.998 70,2.798 70,4.998 L70,66.998 Z" id="Stroke-23" stroke="#3374FF" stroke-width="2" stroke-linecap="round" stroke-linejoin="round"/>
			                                <path d="M70,12.998 L0,12.998" id="Stroke-25" stroke="#3374FF" stroke-width="2" stroke-linecap="round" stroke-linejoin="round"/>
			                                <path d="M70,41.998 L0,41.998" id="Stroke-27" stroke="#3374FF" stroke-width="2" stroke-linecap="round" stroke-linejoin="round"/>
			                                <path d="M7,6.998 C7,7.551 6.553,7.998 6,7.998 C5.447,7.998 5,7.551 5,6.998 C5,6.445 5.447,5.998 6,5.998 C6.553,5.998 7,6.445 7,6.998" id="Fill-31" fill="#3374FF"/>
			                                <path d="M11,6.998 C11,7.551 10.553,7.998 10,7.998 C9.447,7.998 9,7.551 9,6.998 C9,6.445 9.447,5.998 10,5.998 C10.553,5.998 11,6.445 11,6.998" id="Fill-33" fill="#3374FF"/>
			                                <path d="M15,6.998 C15,7.551 14.553,7.998 14,7.998 C13.447,7.998 13,7.551 13,6.998 C13,6.445 13.447,5.998 14,5.998 C14.553,5.998 15,6.445 15,6.998" id="Fill-35" fill="#3374FF"/>
			                                <path d="M26,29.998 L44,29.998" id="Stroke-41" stroke="#3374FF" stroke-width="2" stroke-linecap="round" stroke-linejoin="round"/>
			                                <path d="M21,25.998 L49,25.998" id="Stroke-43" stroke="#3374FF" stroke-width="2" stroke-linecap="round" stroke-linejoin="round"/>
			                                <path d="M17,56.998 C17,58.654 15.656,59.998 14,59.998 C12.344,59.998 11,58.654 11,56.998 C11,55.342 12.344,53.998 14,53.998 C15.656,53.998 17,55.342 17,56.998 Z" id="Stroke-49" stroke="#3374FF" stroke-width="2" stroke-linecap="round" stroke-linejoin="round"/>
			                                <path d="M31,56.998 C31,58.654 29.656,59.998 28,59.998 C26.344,59.998 25,58.654 25,56.998 C25,55.342 26.344,53.998 28,53.998 C29.656,53.998 31,55.342 31,56.998 Z" id="Stroke-51" stroke="#3374FF" stroke-width="2" stroke-linecap="round" stroke-linejoin="round"/>
			                                <path d="M45,56.998 C45,58.654 43.656,59.998 42,59.998 C40.344,59.998 39,58.654 39,56.998 C39,55.342 40.344,53.998 42,53.998 C43.656,53.998 45,55.342 45,56.998 Z" id="Stroke-53" stroke="#3374FF" stroke-width="2" stroke-linecap="round" stroke-linejoin="round"/>
			                                <path d="M59,56.998 C59,58.654 57.656,59.998 56,59.998 C54.344,59.998 53,58.654 53,56.998 C53,55.342 54.344,53.998 56,53.998 C57.656,53.998 59,55.342 59,56.998 Z" id="Stroke-55" stroke="#3374FF" stroke-width="2" stroke-linecap="round" stroke-linejoin="round"/>
			                            </g>
			                        </g>
			                    </g>
			                </svg>