<svg width="80px" height="80px" viewBox="0 0 80 80" version="1.1" xmlns="http://www.w3.org/2000/svg" xmlns:xlink="http://www.w3.org/1999/xlink">
			                    <title>Get Selling</title>
			                    <g id="Design" stroke="none" stroke-width="1" fill="none" fill-rule="evenodd">
			                        <g id="Design-4.0" transform="translate(-929.000000, -984.000000)">
			                            <g id="Get-Selling" transform="translate(929.000000, 984.000000)">
			                                <g id="Union" fill="#3374FF">
			                                    <path d="M28,14 C28,7.35229 33.3516,2 40,2 C46.6484,2 52,7.35229 52,14 L52,20 L50,20 L50,14 C50,8.44772 45.5527,4 40,4 C34.4473,4 30,8.44772 30,14 L30,20 L28,20 L28,14 Z M26,20 L26,14 C26,6.24771 32.248,0 40,0 C47.752,0 54,6.24771 54,14 L54,20 L76,20 C76.5762,20 77.0664,20.2776 77.3945,20.6054 C77.7227,20.9332 78,21.4248 78,22 L78,59.9446 L79.9941,77.8896 L80,78 C80,78.5752 79.7227,79.0668 79.3945,79.3946 C79.0664,79.7224 78.5762,80 78,80 L2,80 C1.42383,80 0.933594,79.7224 0.605469,79.3946 C0.277344,79.0668 0,78.5752 0,78 L0.00585938,77.8896 L2,59.9446 L2,22 C2,21.4248 2.27734,20.9332 2.60547,20.6054 C2.93359,20.2776 3.42383,20 4,20 L26,20 Z M31,22 L27,22 L4.04297,22 L4.01953,22.0196 L4,22.0427 L4,60 L3.99414,60.1104 L2.00977,77.9695 L2.01953,77.9804 L2.04297,77.9997 L77.957,78 L77.9805,77.9804 L77.9902,77.9695 L76.0059,60.1104 L76,60 L76,22.0427 L75.9805,22.0196 L75.957,22.0003 L53,22 L49,22 L31,22 Z M48,20 L32,20 L32,14 C32,9.55228 35.5527,6 40,6 C44.4473,6 48,9.55228 48,14 L48,20 Z M29,26 C29.5527,26 30,25.5523 30,25 C30,24.4477 29.5527,24 29,24 C28.4473,24 28,24.4477 28,25 C28,25.5523 28.4473,26 29,26 Z M9,60 C9,60.5523 8.55273,61 8,61 C7.44727,61 7,60.5523 7,60 C7,59.4477 7.44727,59 8,59 C8.55273,59 9,59.4477 9,60 Z M41,60 C41,60.5523 40.5527,61 40,61 C39.4473,61 39,60.5523 39,60 C39,59.4477 39.4473,59 40,59 C40.5527,59 41,59.4477 41,60 Z M49,60 C49,60.5523 48.5527,61 48,61 C47.4473,61 47,60.5523 47,60 C47,59.4477 47.4473,59 48,59 C48.5527,59 49,59.4477 49,60 Z M56,61 C56.5527,61 57,60.5523 57,60 C57,59.4477 56.5527,59 56,59 C55.4473,59 55,59.4477 55,60 C55,60.5523 55.4473,61 56,61 Z M65,60 C65,60.5523 64.5527,61 64,61 C63.4473,61 63,60.5523 63,60 C63,59.4477 63.4473,59 64,59 C64.5527,59 65,59.4477 65,60 Z M72,61 C72.5527,61 73,60.5523 73,60 C73,59.4477 72.5527,59 72,59 C71.4473,59 71,59.4477 71,60 C71,60.5523 71.4473,61 72,61 Z M52,25 C52,25.5523 51.5527,26 51,26 C50.4473,26 50,25.5523 50,25 C50,24.4477 50.4473,24 51,24 C51.5527,24 52,24.4477 52,25 Z M16,61 C16.5527,61 17,60.5523 17,60 C17,59.4477 16.5527,59 16,59 C15.4473,59 15,59.4477 15,60 C15,60.5523 15.4473,61 16,61 Z M25,60 C25,60.5523 24.5527,61 24,61 C23.4473,61 23,60.5523 23,60 C23,59.4477 23.4473,59 24,59 C24.5527,59 25,59.4477 25,60 Z M32,61 C32.5527,61 33,60.5523 33,60 C33,59.4477 32.5527,59 32,59 C31.4473,59 31,59.4477 31,60 C31,60.5523 31.4473,61 32,61 Z M45,60 C45,60.5523 44.5527,61 44,61 C43.4473,61 43,60.5523 43,60 C43,59.4477 43.4473,59 44,59 C44.5527,59 45,59.4477 45,60 Z M52,61 C52.5527,61 53,60.5523 53,60 C53,59.4477 52.5527,59 52,59 C51.4473,59 51,59.4477 51,60 C51,60.5523 51.4473,61 52,61 Z M61,60 C61,60.5523 60.5527,61 60,61 C59.4473,61 59,60.5523 59,60 C59,59.4477 59.4473,59 60,59 C60.5527,59 61,59.4477 61,60 Z M68,61 C68.5527,61 69,60.5523 69,60 C69,59.4477 68.5527,59 68,59 C67.4473,59 67,59.4477 67,60 C67,60.5523 67.4473,61 68,61 Z M13,60 C13,60.5523 12.5527,61 12,61 C11.4473,61 11,60.5523 11,60 C11,59.4477 11.4473,59 12,59 C12.5527,59 13,59.4477 13,60 Z M20,61 C20.5527,61 21,60.5523 21,60 C21,59.4477 20.5527,59 20,59 C19.4473,59 19,59.4477 19,60 C19,60.5523 19.4473,61 20,61 Z M29,60 C29,60.5523 28.5527,61 28,61 C27.4473,61 27,60.5523 27,60 C27,59.4477 27.4473,59 28,59 C28.5527,59 29,59.4477 29,60 Z M36,61 C36.5527,61 37,60.5523 37,60 C37,59.4477 36.5527,59 36,59 C35.4473,59 35,59.4477 35,60 C35,60.5523 35.4473,61 36,61 Z" id="Shape"/>
			                                </g>
			                                <circle id="Oval-2" stroke="#3374FF" stroke-width="2" cx="40" cy="43" r="6"/>
			                            </g>
			                        </g>
			                    </g>
			                </svg>