<svg width="72px" height="72px" viewBox="0 0 72 72" version="1.1" xmlns="http://www.w3.org/2000/svg" xmlns:xlink="http://www.w3.org/1999/xlink">
			                    <title>Get Growing</title>
			                    <g id="Design" stroke="none" stroke-width="1" fill="none" fill-rule="evenodd">
			                        <g id="Design-4.0" transform="translate(-1191.000000, -988.000000)">
			                            <g id="Get-Growing" transform="translate(1191.000000, 988.000000)" fill="#3374FF">
			                                <path d="M2,5 C2,3.35229 3.35229,2 5,2 L67,2 C68.6477,2 70,3.35229 70,5 L70,67 C70,68.6477 68.6477,70 67,70 L5,70 C3.35229,70 2,68.6477 2,67 L2,5 Z M5,0 C2.24768,0 0,2.24771 0,5 L0,67 C0,69.7523 2.24768,72 5,72 L67,72 C69.7523,72 72,69.7523 72,67 L72,5 C72,2.24771 69.7523,0 67,0 L5,0 Z M49,23.9 C49,21.6838 50.9138,20 53.1,20 C55.2294,20 57,21.6251 57,23.9 C57,26.0627 55.4379,28 53.1,28 C52.6224,28 52.1631,27.9169 51.7357,27.7646 L48.8944,33.4472 C48.7507,33.7347 48.4775,33.9356 48.1602,33.9871 C47.8429,34.0386 47.5203,33.9344 47.293,33.7071 L44.0184,30.4326 L41.0607,33.546 L37.6321,42.3625 C37.4945,42.7161 37.1687,42.9615 36.7908,42.9959 C36.4128,43.0303 36.048,42.8479 35.8489,42.5249 L33.0117,37.9241 L30.2576,42.5145 C30.0812,42.8084 29.7665,42.9916 29.4238,42.9997 C29.0811,43.0079 28.7582,42.8399 28.568,42.5547 L25.7021,38.256 L22.3488,48.3162 C22.2173,48.7106 21.8555,48.9825 21.4401,48.9992 C21.0247,49.0158 20.6423,48.7737 20.4797,48.3911 L17.5919,41.5963 L14.8197,43.7849 C14.5693,43.9825 14.2397,44.0489 13.9324,43.9635 L10.92,43.1267 L7.63416,46.679 C7.25916,47.0845 6.62646,47.1091 6.22095,46.7341 C5.81555,46.3591 5.79089,45.7264 6.16589,45.321 L9.86597,41.321 C10.1202,41.046 10.5068,40.9362 10.8677,41.0365 L13.9786,41.9007 L17.3804,39.2151 C17.625,39.022 17.9458,38.9539 18.2477,39.0312 C18.5497,39.1084 18.7985,39.322 18.9204,39.6089 L21.2869,45.1772 L24.4513,35.6838 C24.5721,35.3214 24.8888,35.0595 25.2673,35.0089 C25.6459,34.9582 26.0203,35.1275 26.2321,35.4453 L29.3556,40.1305 L32.1426,35.4855 C32.3221,35.1862 32.6449,35.0021 32.9939,35 C33.343,34.9979 33.668,35.178 33.8512,35.4751 L36.4963,39.7646 L39.2681,32.6375 C39.3152,32.5164 39.3855,32.4055 39.475,32.3112 L43.275,28.3112 C43.4607,28.1158 43.7175,28.0035 43.9872,28.0001 C44.2568,27.9966 44.5165,28.1022 44.7072,28.2929 L47.7261,31.3118 L50.0608,26.6425 C49.4026,25.9143 49,24.9512 49,23.9 Z M53.1,22 C51.8862,22 51,22.9161 51,23.9 C51,25.0477 51.9523,26 53.1,26 C54.1621,26 55,25.1374 55,23.9 C55,22.7749 54.1705,22 53.1,22 Z M53,36 C53.5522,36 54,35.5523 54,35 C54,34.4477 53.5522,34 53,34 C52.4478,34 52,34.4477 52,35 C52,35.5523 52.4478,36 53,36 Z M54,31 C54,31.5523 53.5522,32 53,32 C52.4478,32 52,31.5523 52,31 C52,30.4477 52.4478,30 53,30 C53.5522,30 54,30.4477 54,31 Z M53,18 C53.5522,18 54,17.5523 54,17 C54,16.4477 53.5522,16 53,16 C52.4478,16 52,16.4477 52,17 C52,17.5523 52.4478,18 53,18 Z M54,13 C54,13.5523 53.5522,14 53,14 C52.4478,14 52,13.5523 52,13 C52,12.4477 52.4478,12 53,12 C53.5522,12 54,12.4477 54,13 Z M53,10 C53.5522,10 54,9.55228 54,9 C54,8.44772 53.5522,8 53,8 C52.4478,8 52,8.44772 52,9 C52,9.55228 52.4478,10 53,10 Z M54,5 C54,5.55228 53.5522,6 53,6 C52.4478,6 52,5.55228 52,5 C52,4.44772 52.4478,4 53,4 C53.5522,4 54,4.44772 54,5 Z M53,40 C53.5522,40 54,39.5523 54,39 C54,38.4477 53.5522,38 53,38 C52.4478,38 52,38.4477 52,39 C52,39.5523 52.4478,40 53,40 Z M54,43 C54,43.5523 53.5522,44 53,44 C52.4478,44 52,43.5523 52,43 C52,42.4477 52.4478,42 53,42 C53.5522,42 54,42.4477 54,43 Z M53,48 C53.5522,48 54,47.5523 54,47 C54,46.4477 53.5522,46 53,46 C52.4478,46 52,46.4477 52,47 C52,47.5523 52.4478,48 53,48 Z M54,51 C54,51.5523 53.5522,52 53,52 C52.4478,52 52,51.5523 52,51 C52,50.4477 52.4478,50 53,50 C53.5522,50 54,50.4477 54,51 Z M53,56 C53.5522,56 54,55.5523 54,55 C54,54.4477 53.5522,54 53,54 C52.4478,54 52,54.4477 52,55 C52,55.5523 52.4478,56 53,56 Z M54,59 C54,59.5523 53.5522,60 53,60 C52.4478,60 52,59.5523 52,59 C52,58.4477 52.4478,58 53,58 C53.5522,58 54,58.4477 54,59 Z M53,64 C53.5522,64 54,63.5523 54,63 C54,62.4477 53.5522,62 53,62 C52.4478,62 52,62.4477 52,63 C52,63.5523 52.4478,64 53,64 Z M54,67 C54,67.5523 53.5522,68 53,68 C52.4478,68 52,67.5523 52,67 C52,66.4477 52.4478,66 53,66 C53.5522,66 54,66.4477 54,67 Z" id="Shape"/>
			                            </g>
			                        </g>
			                    </g>
			                </svg>